<svg width="386" height="197" viewBox="0 0 386 197" fill="none" xmlns="http://www.w3.org/2000/svg">
<rect x="-0.328125" y="195.234" width="385.672" height="1" fill="#DBD9D9"/>
<rect x="-0.328125" width="385.672" height="1" fill="#DBD9D9"/>
<g clip-path="url(#clip0_2017_4)">
<path d="M192.679 193.22C245.469 193.22 288.264 150.525 288.264 97.8595C288.264 45.1936 245.469 2.49951 192.679 2.49951C139.889 2.49951 97.0944 45.1936 97.0944 97.8595C97.0944 150.525 139.889 193.22 192.679 193.22Z" stroke="#574B4B" stroke-width="2"/>
<path d="M245.283 97.8595C245.283 124.283 239.377 148.172 229.861 165.433C220.332 182.718 207.273 193.22 193 193.22C178.727 193.22 165.668 182.718 156.139 165.433C146.623 148.172 140.717 124.283 140.717 97.8595C140.717 71.4365 146.623 47.5469 156.139 30.2857C165.668 13.0014 178.727 2.49951 193 2.49951C207.273 2.49951 220.332 13.0014 229.861 30.2857C239.377 47.5469 245.283 71.4365 245.283 97.8595Z" stroke="#574B4B" stroke-width="2"/>
<path d="M193 193.539V2.1792" stroke="#574B4B" stroke-width="2"/>
<path d="M115.698 40.8994H269.66" stroke="#574B4B" stroke-width="2"/>
<path d="M97.0944 97.8594H288.906" stroke="#574B4B" stroke-width="2"/>
<path d="M115.698 154.819H269.66" stroke="#574B4B" stroke-width="2"/>
</g>
<defs>
<clipPath id="clip0_2017_4">
<rect width="306" height="192" fill="white" transform="translate(40 1.85938)"/>
</clipPath>
</defs>
</svg>
