<svg width="387" height="197" viewBox="0 0 387 197" fill="none" xmlns="http://www.w3.org/2000/svg">
<rect x="0.34375" y="195.234" width="385.672" height="1" fill="#DBD9D9"/>
<rect x="0.34375" width="385.672" height="1" fill="#DBD9D9"/>
<g clip-path="url(#clip0_2017_6)">
<path d="M192.679 193.22C245.469 193.22 288.264 150.525 288.264 97.8595C288.264 45.1936 245.469 2.49951 192.679 2.49951C139.889 2.49951 97.0944 45.1936 97.0944 97.8595C97.0944 150.525 139.889 193.22 192.679 193.22Z" stroke="#574B4B" stroke-width="2"/>
<path d="M192.679 154.18V41.5396" stroke="#574B4B" stroke-width="2"/>
<path d="M215.132 56.5796H182.255C170.829 56.5796 161.566 65.8204 161.566 77.2196C161.566 88.6186 170.829 97.8596 182.255 97.8596H201.019C212.356 97.8596 221.547 107.029 221.547 118.34C221.547 129.65 212.356 138.82 201.019 138.82H167.981" stroke="#574B4B" stroke-width="2"/>
</g>
<defs>
<clipPath id="clip0_2017_6">
<rect width="306" height="192" fill="white" transform="translate(40 1.85938)"/>
</clipPath>
</defs>
</svg>
